<?xml version="1.0" standalone="no"?>
<!DOCTYPE svg PUBLIC "-//W3C//DTD SVG 20010904//EN"
 "http://www.w3.org/TR/2001/REC-SVG-20010904/DTD/svg10.dtd">
<svg version="1.0" xmlns="http://www.w3.org/2000/svg"
 width="512.000000pt" height="512.000000pt" viewBox="0 0 512.000000 512.000000"
 preserveAspectRatio="xMidYMid meet">

<g transform="translate(0.000000,512.000000) scale(0.100000,-0.100000)"
fill="#000000" stroke="none">
<path d="M1808 4760 c-73 -22 -155 -99 -190 -178 -18 -41 -21 -74 -26 -269
l-5 -222 -501 -4 c-554 -4 -557 -5 -702 -71 -202 -94 -330 -264 -369 -493 -14
-79 -15 -249 -13 -1349 l3 -1259 23 -75 c38 -122 88 -207 172 -291 85 -86 187
-143 325 -182 l80 -22 1955 0 1955 0 80 22 c258 73 421 228 497 473 l23 75 3
1255 c2 846 -1 1278 -8 1325 -51 335 -278 549 -624 585 -50 5 -286 10 -523 10
l-433 0 0 168 c-1 283 -17 350 -104 430 -94 87 -42 82 -864 81 -400 0 -739 -4
-754 -9z m1455 -201 c47 -21 51 -40 55 -261 l4 -208 -756 0 -756 0 0 211 0
211 29 29 29 29 686 0 c466 0 693 -3 709 -11z m1302 -703 c165 -50 261 -140
317 -296 l23 -65 3 -1240 c2 -1107 1 -1249 -13 -1320 -21 -100 -57 -174 -115
-235 -59 -62 -119 -95 -215 -120 -77 -20 -110 -20 -2004 -20 -1672 0 -1934 2
-1989 15 -191 45 -307 166 -347 361 -14 70 -15 217 -13 1319 l3 1240 23 65
c66 184 186 278 397 310 28 4 910 7 1960 6 1811 -1 1913 -2 1970 -20z"/>
<path d="M2183 3284 c-82 -41 -92 -77 -93 -351 l0 -222 -244 -3 c-358 -4 -336
26 -336 -461 0 -396 1 -399 75 -442 41 -25 45 -25 273 -25 l231 0 3 -237 c3
-224 4 -240 25 -273 12 -19 37 -44 55 -55 31 -19 51 -20 388 -20 397 0 390 -1
440 73 25 35 25 40 28 274 l4 238 230 0 c228 0 232 0 273 25 74 43 75 46 75
440 0 384 -1 393 -64 438 -30 21 -41 22 -273 25 l-242 3 -3 237 c-3 263 -7
278 -70 324 -33 23 -34 23 -388 25 -307 3 -359 1 -387 -13z m629 -454 l3 -260
33 -32 32 -33 260 -3 260 -3 0 -255 0 -254 -253 0 c-267 0 -282 -2 -312 -49
-6 -9 -12 -129 -15 -276 l-5 -260 -255 0 -255 0 -5 260 c-3 147 -9 267 -15
276 -30 47 -45 49 -312 49 l-253 0 0 255 0 254 261 3 261 3 29 33 29 32 0 260
0 260 254 0 255 0 3 -260z"/>
</g>
</svg>
